<?xml version="1.0" encoding="utf-8"?>
<!-- Generator: Adobe Illustrator 19.0.0, SVG Export Plug-In . SVG Version: 6.00 Build 0)  -->
<svg version="1.1" id="Layer_1" xmlns="http://www.w3.org/2000/svg" xmlns:xlink="http://www.w3.org/1999/xlink" x="0px" y="0px"
	 viewBox="0 0 500 500" style="enable-background:new 0 0 500 500;" xml:space="preserve">
<g id="XMLID_1_">
	<path id="XMLID_3_" d="M203,177.3c0,0,23.5-27.2,76.7-27.2c48.9,0,123.3,21.9,126.6,127.2c-0.4,41.6,0,67.1-28.8,80.3
		c-8.4,3.8-20,8.1-19.9,25.8c0,0-0.3,30.7,30.1,30.7c0,0-8.9-28.9,16.6-29.9c0,0,17.2-2,18.8,18.6c0,0,1.3,31-35.4,29.7
		c0,0-75.9-0.2-70.4-125.1c1.2-12.5,2-29.4,10.6-63.7c0,0,17.7-61.6-55.6-61.6c0,0-53.9,0.2-70.2,37.5v92.4c0,0-2.1,32.7,39.1,47
		c0,0,35.7,9.4,73.3,44.1c0,0,15.2,12,9.7,21c0,0-4.9,9-19.7-4.7c0,0-43.5-40.7-118.7-33.8c0,0-31.3,0-89.2,11.9
		c0,0-15.5,3.9-19-4.2c-1-2.4-2-7,6.2-11.7c0,0,47-27.6,47-69.2V172.6c0,0,1.3-54.1-36.3-87c0,0-7.1-6.4-3.9-13.6
		c1.1-2.5,4.7-7.2,13.9-2.4c0,0,42.3,26.8,113.7,35c0,0,71,7.8,160-18.1c0,0,11.9-3.7,14.8,3.7c2.6,6.6-1.2,10.7-11.9,15.6
		c0,0-57.4,24.5-147.9,22.6c0,0-29.7-2.8-29.7,22.9L203,177.3z"/>
</g>
</svg>
